PathFileType	4	(X/Y/Z)	64_2_99_p1_0-134_filt_butterworth.trc
DataRate	CameraRate	NumFrames	NumMarkers	Units	OrigDataRate	OrigDataStartFrame	OrigNumFrames
47.0	47.0	5	27	m	47.0	33	134
Frame#	Time	RHip			RKnee			RAnkle			RBigToe			RSmallToe			RHeel			LHip			LKnee			LAnkle			LBigToe			LSmallToe			LHeel			Neck			Head			Nose			RShoulder			RElbow			RWrist			RThumb			RIndex			RPinky			LShoulder			LElbow			LWrist			LThumb			LIndex			LPinky			
		X1	Y1	Z1	X2	Y2	Z2	X3	Y3	Z3	X4	Y4	Z4	X5	Y5	Z5	X6	Y6	Z6	X7	Y7	Z7	X8	Y8	Z8	X9	Y9	Z9	X10	Y10	Z10	X11	Y11	Z11	X12	Y12	Z12	X13	Y13	Z13	X14	Y14	Z14	X15	Y15	Z15	X16	Y16	Z16	X17	Y17	Z17	X18	Y18	Z18	X19	Y19	Z19	X20	Y20	Z20	X21	Y21	Z21	X22	Y22	Z22	X23	Y23	Z23	X24	Y24	Z24	X25	Y25	Z25	X26	Y26	Z26	X27	Y27	Z27	
33	0.7021276595744681	0.3161612456052067	0.3406577841260448	1.039714810786022	0.29228632772062446	-0.12915872950639673	1.0801107233022873	0.23418937259808825	-0.5601962649344262	1.134368648308639	0.28362054563062555	-0.593098906938048	0.8963309896087556	0.3400818486668323	-0.593523400374145	0.9507487979693605	0.18770678849733993	-0.6285746264306047	1.1876846655387157	0.10100862032870105	0.3497651377161314	0.9676685417053672	0.07772470985222998	-0.10989221641577757	0.9849891895961865	0.05241153007447255	-0.5421829725104149	1.0367069057411675	0.12514197762507853	-0.5754226959885123	0.8460071717644414	0.056808085771626035	-0.5868935800100659	0.8869433841963433	0.048046758474361344	-0.6055667220993204	1.1306445168439796	0.27842544485386084	0.9379386097838633	0.9225112693342842	0.31574883085534833	1.182689328583066	0.867802822236783	0.32386212732848807	1.043032739495898	0.7826478826825795	0.4230438720381974	0.8865085234531836	1.0288243015961047	0.4004465126555945	0.6386030673612448	0.9593709660439107	0.22487903009166588	0.7232973046038651	0.8330587561418982	0.09459779181208094	0.8092782075934026	0.8255862012448622	0.08357713479979259	0.8008721742811786	0.813859660124518	0.0858584876373496	0.7308452061857252	0.8347159988145787	0.11687251430169193	0.9072995514072073	0.8918039937753813	0.07925316769899261	0.6436876495305173	0.8492280075088923	0.33035561018267123	0.6039930570192505	0.8244962134067472	0.4263744095604042	0.6557532715038565	0.8435705287020636	0.45215214629338557	0.6293460906197601	0.8494366593687713	0.4260468257886393	0.5606779978534482	0.8859163881795356	
34	0.723404255319149	0.3163997443172992	0.3411890533426875	1.0405440728734683	0.29244597558415625	-0.1290702263990442	1.080051599492399	0.2346467948358897	-0.5599328255868031	1.1339983429431602	0.2836158320690506	-0.592990357080641	0.8960130323413055	0.34042171845718816	-0.5935236203085773	0.9507994499874111	0.18779072280826672	-0.6297588288397946	1.18945384132644	0.10123599939500341	0.3509161395898724	0.968205988023779	0.07762676072482849	-0.10969904160900046	0.9840313569966378	0.05259508510010626	-0.5420670616685699	1.0364885658331313	0.12516824478167068	-0.5753422854783926	0.8459217900796944	0.056940906686978765	-0.5866366199790477	0.8869546617749501	0.04801813755477156	-0.6058577601810856	1.131131733245135	0.27833943656160237	0.9352761947654284	0.9219857847197002	0.3157474362643695	1.1813092669242025	0.8638932971233937	0.32540599649300633	1.0402783994149647	0.7805872622718055	0.4232315886626262	0.8867521918065936	1.0272165058339777	0.3990721032805492	0.6430521462881837	0.9582527409675656	0.21553104599394896	0.7346257366841072	0.844089950928506	0.09308156088226546	0.8232933765065777	0.8290450907982074	0.08229957595800423	0.8169372297589532	0.8250851712803227	0.08693194182916392	0.7520299331352954	0.8410624471008126	0.11731206018157865	0.9111190652091268	0.890155821443421	0.07954153756135765	0.6447559949899703	0.8474717097112302	0.3349128156513047	0.625639090067726	0.8344513700664729	0.4302713769648629	0.6833943399526294	0.8513179019314565	0.45600971729602324	0.6589957981198457	0.8633968473563429	0.43459405236768034	0.5917779798136202	0.9000752725119976	
35	0.7446808510638298	0.3165325118100225	0.34195149407490977	1.0413322579340414	0.2926083215624136	-0.12871582159255285	1.0800318778505988	0.2353501582596969	-0.5595341500465857	1.1334437215137356	0.2835141393778994	-0.5940001799899067	0.8976573745158858	0.3407946868948931	-0.5936316105113423	0.9509870148776236	0.18796979205306263	-0.6312533586714524	1.1912732425290837	0.10161023887007868	0.35233635042771266	0.9684825845949395	0.07767522112317614	-0.10927472340698097	0.9831209555536754	0.05285580902239245	-0.5419223068331628	1.0365411680415388	0.12517907662372812	-0.5752998001811727	0.8458747072653594	0.05713410830377551	-0.5862271694378667	0.8869385364070234	0.04801358139119368	-0.6062338885353348	1.1320340002875298	0.27822411379884826	0.9336575114665071	0.9224848822718288	0.31521683327564065	1.179935782445327	0.8610188640596211	0.3260961452070183	1.0379292455358498	0.7791511857772275	0.42309773166659137	0.8869539072557117	1.0244285852953436	0.3998371740367618	0.6485204541826324	0.957567742988011	0.2081954794371868	0.7413267290118699	0.8514129517530904	0.09115233673656974	0.83123319167971	0.8302098884376568	0.08178620524084182	0.8257036134648852	0.8305554140503798	0.0886237160054436	0.7651431969912986	0.8452026771668548	0.11777727054453008	0.9147453462202557	0.886939356992086	0.08317484723154397	0.6459849689196491	0.8441124730984694	0.3380854080130305	0.6416124053079477	0.8430897159023951	0.4321458755353336	0.7053325128983082	0.8604063201998764	0.4594458698386483	0.6838054969920669	0.874295670486979	0.44043870989216183	0.6169655967052204	0.9133140579573626	
36	0.7659574468085106	0.3165530331849641	0.34300623419431364	1.04187808096231	0.292724647600328	-0.12841313380251873	1.0800395746697888	0.23622921759099613	-0.5590199627304058	1.1326163738764634	0.2833516253072823	-0.5953875936182854	0.9000218249122036	0.3410826374781747	-0.5935990313966145	0.9507990855796273	0.18825670696834138	-0.63279004410744	1.1927963248497897	0.10195131313494253	0.3540899278619564	0.9688439723727327	0.07777996101580033	-0.10874306480695739	0.982339867380194	0.05313039762149405	-0.5417717351439599	1.0368908159451817	0.12517821175071592	-0.5753127946340492	0.8458559510607949	0.05734830386705472	-0.5857636622405308	0.8868739094195917	0.048012225430585864	-0.6066923043057973	1.1333423910591003	0.2781306854812719	0.933050311767689	0.9234923513007576	0.31443534023673314	1.1783997172736702	0.8593501334117164	0.3253935730788543	1.0361175477238136	0.7779973441997015	0.4223960722126044	0.8873539723633925	1.0205732316169085	0.40146281343049334	0.655018568661093	0.956777239851069	0.2040912779678775	0.742180129142254	0.8543515102458062	0.08987840892191194	0.8321923384114406	0.8304123687812175	0.08248987104016459	0.8272922755558006	0.8303049396383834	0.0894533495528205	0.7687336336777119	0.848477485424713	0.1179957191764815	0.9173767293851947	0.8836036946564096	0.09081077275371519	0.6483512686336591	0.8389218163333473	0.3415362948700348	0.6529083761465597	0.849050160392925	0.43215838708288784	0.7224804497528319	0.8698156948429847	0.4614765939587639	0.703331515947218	0.8818320582602983	0.4425718670504729	0.6354136795022611	0.9246888586021634	
37	0.7872340425531915	0.31649251661543487	0.34421484188250995	1.0421629072824155	0.2927878138264179	-0.12831076413038967	1.0800412639819816	0.2372819152881205	-0.5583923077464594	1.1314566770400825	0.2831984968620817	-0.5963334565879032	0.9017438978046731	0.34120893920644946	-0.5932439878067051	0.9499331209337616	0.1886994402919415	-0.6340978776317525	1.1939558134711827	0.10206518356922056	0.35603444487892705	0.9694679452717375	0.07790793830404458	-0.10823483259698446	0.9817915392195857	0.053450985868321366	-0.5416884493921251	1.0376053131440965	0.12517150147183562	-0.5753501510383702	0.8458434904924897	0.057496511038584594	-0.5854568428043372	0.8867619889387495	0.04801802490481254	-0.6072988506646401	1.1350136807230724	0.27814915006406615	0.9333274184920313	0.9242944549927534	0.3139161759960161	1.176853987084379	0.8585597489436851	0.3228087052806622	1.0346447617583063	0.7774359195879808	0.4212226683803717	0.8878601833897863	1.0162540760318861	0.40296635593517843	0.6618814334719852	0.955171951735351	0.20313071625014817	0.7380179838838823	0.8534817807343249	0.08921872913515612	0.8265054142527812	0.8303475543092704	0.08369577459803229	0.822666821573452	0.8269915901752588	0.08969968667891463	0.7637316442048654	0.8509454080766908	0.11802818901067949	0.9184163886916377	0.8812607984241307	0.10139463542640395	0.6519314858562628	0.8336260359008155	0.34618660240737953	0.6620542868543938	0.851742147094489	0.4316372477456635	0.736894848897911	0.8778059171653632	0.46167415175759086	0.7183789779144201	0.8866896091012859	0.44057421938437885	0.6483471155489333	0.9341808580012216	
